grf
version=1
nRows=6
nColumns=37
inDegrees=no
endheader
time	ground_force_1_vx	ground_force_1_vy	ground_force_1_vz	ground_force_1_px	ground_force_1_py	ground_force_1_pz	ground_moment_1_mx	ground_moment_1_my	ground_moment_1_mz	ground_force_2_vx	ground_force_2_vy	ground_force_2_vz	ground_force_2_px	ground_force_2_py	ground_force_2_pz	ground_moment_2_mx	ground_moment_2_my	ground_moment_2_mz	ground_force_3_vx	ground_force_3_vy	ground_force_3_vz	ground_force_3_px	ground_force_3_py	ground_force_3_pz	ground_moment_3_mx	ground_moment_3_my	ground_moment_3_mz	ground_force_4_vx	ground_force_4_vy	ground_force_4_vz	ground_force_4_px	ground_force_4_py	ground_force_4_pz	ground_moment_4_mx	ground_moment_4_my	ground_moment_4_mz
      2.51000000	      0.00000000	     -0.00000000	      0.00000000	      0.00000000	      0.00000000	      0.00000000	      0.00000000	      0.00000000	      0.00000000	     -6.08515739	     44.22750473	   -383.29232788	   -377.26312563	  -1093.52256614	      0.00000000	     -0.00000000	      0.00000000	    233.44181415	     -8.54905538	    -35.95620271	   -333.12731934	   -359.89395660	   -675.46359855	      0.00000000	      0.00000000	     -0.00000000	   -430.22924585	      0.00000000	     -0.00000000	      0.00000000	      0.00000000	      0.00000000	      0.00000000	      0.00000000	      0.00000000	      0.00000000
      2.52000000	      0.00000000	     -0.00000000	      0.00000000	      0.00000000	      0.00000000	      0.00000000	      0.00000000	      0.00000000	      0.00000000	     -5.44184113	     43.49563599	   -382.06558228	   -379.44154175	  -1091.43477848	      0.00000000	     -0.00000000	      0.00000000	    389.79104437	     -8.01211289	    -35.85860373	   -333.66131592	   -359.70909136	   -675.36926663	      0.00000000	      0.00000000	     -0.00000000	   -429.78970838	      0.00000000	     -0.00000000	      0.00000000	      0.00000000	      0.00000000	      0.00000000	      0.00000000	      0.00000000	      0.00000000
      2.53000000	      0.00000000	     -0.00000000	      0.00000000	      0.00000000	      0.00000000	      0.00000000	      0.00000000	      0.00000000	      0.00000000	     -4.39043713	     43.07864380	   -379.70629883	   -380.70761414	  -1091.05562739	      0.00000000	      0.00000000	      0.00000000	    525.24598196	     -8.51623845	    -35.49590609	   -332.77871704	   -359.75890265	   -676.23885173	      0.00000000	      0.00000000	     -0.00000000	   -215.88813734	      0.00000000	     -0.00000000	      0.00000000	      0.00000000	      0.00000000	      0.00000000	      0.00000000	      0.00000000	      0.00000000
      2.54000000	      0.00000000	     -0.00000000	      0.00000000	      0.00000000	      0.00000000	      0.00000000	      0.00000000	      0.00000000	      0.00000000	     -3.92526245	     41.50331879	   -378.01681519	   -381.73984825	  -1090.21604863	      0.00000000	      0.00000000	      0.00000000	    448.38763278	     -8.43704624	    -34.86811755	   -333.90133667	   -361.17429974	   -676.91606178	      0.00000000	      0.00000000	     -0.00000000	   -210.08997299	      0.00000000	     -0.00000000	      0.00000000	      0.00000000	      0.00000000	      0.00000000	      0.00000000	      0.00000000	      0.00000000
      2.55000000	      0.00000000	     -0.00000000	      0.00000000	      0.00000000	      0.00000000	      0.00000000	      0.00000000	      0.00000000	      0.00000000	     -3.34156537	     41.54647827	   -377.35763550	   -380.85773888	  -1092.20248390	      0.00000000	      0.00000000	      0.00000000	    368.48271007	     -8.22136605	    -34.09217000	   -334.48724365	   -362.01281894	   -677.24483408	      0.00000000	      0.00000000	     -0.00000000	   -128.92497118	      0.00000000	     -0.00000000	      0.00000000	      0.00000000	      0.00000000	      0.00000000	      0.00000000	      0.00000000	      0.00000000
      2.56000000	      0.00000000	     -0.00000000	      0.00000000	      0.00000000	      0.00000000	      0.00000000	      0.00000000	      0.00000000	      0.00000000	     -3.25062227	     40.68383408	   -371.50665283	   -383.08307746	  -1089.57302787	      0.00000000	      0.00000000	      0.00000000	    435.99600296	     -6.85004006	    -33.88669526	   -335.07156372	   -362.50849505	   -678.08816330	      0.00000000	      0.00000000	     -0.00000000	   -124.31163867	      0.00000000	     -0.00000000	      0.00000000	      0.00000000	      0.00000000	      0.00000000	      0.00000000	      0.00000000	      0.00000000
